#define ArcModeIcon_width 21
#define ArcModeIcon_height 21
static unsigned char ArcModeIcon_bits[] = {
   0x00, 0x00, 0x00, 0x20, 0x00, 0x00, 0x20, 0x00, 0x00, 0x20, 0x00, 0x00,
   0x20, 0x00, 0x00, 0x40, 0x00, 0x00, 0x40, 0x00, 0x00, 0x80, 0x00, 0x00,
   0x80, 0x01, 0x00, 0x00, 0x03, 0x00, 0x00, 0x0c, 0x00, 0x00, 0xf0, 0x00,
   0x00, 0x00, 0x00, 0x08, 0x0f, 0x07, 0x14, 0x91, 0x08, 0x14, 0x91, 0x08,
   0x22, 0x8f, 0x00, 0x3e, 0x83, 0x00, 0x22, 0x85, 0x00, 0x22, 0x89, 0x08,
   0x22, 0x11, 0x07};
