#define BufferModeIcon_width 21
#define BufferModeIcon_height 21
static unsigned char BufferModeIcon_bits[] = {
   0x00, 0x00, 0x00, 0x80, 0x19, 0x00, 0xe0, 0x76, 0x00, 0x80, 0x10, 0x00,
   0xe0, 0x70, 0x00, 0x80, 0x10, 0x00, 0xe0, 0x70, 0x00, 0x80, 0x10, 0x00,
   0xe0, 0x70, 0x00, 0x80, 0x10, 0x00, 0xe0, 0x70, 0x00, 0x80, 0x1f, 0x00,
   0x00, 0x00, 0x00, 0x3e, 0xd1, 0x07, 0x44, 0x51, 0x00, 0x44, 0x51, 0x00,
   0x44, 0xd1, 0x03, 0x3c, 0x51, 0x00, 0x44, 0x51, 0x00, 0x44, 0x51, 0x00,
   0x3e, 0x4e, 0x00};
