#define InsertPointModeIcon_width 21
#define InsertPointModeIcon_height 21
static unsigned char InsertPointModeIcon_bits[] = {
   0xc0, 0x01, 0x00, 0x20, 0x02, 0x00, 0xa0, 0x02, 0x00, 0xc0, 0x03, 0x00,
   0x00, 0x00, 0x00, 0x30, 0x18, 0x00, 0x00, 0x00, 0x00, 0x1c, 0x00, 0x07,
   0x32, 0x80, 0x08, 0xea, 0xff, 0x0a, 0x22, 0x80, 0x08, 0x1c, 0x00, 0x07,
   0x00, 0x00, 0x00, 0xb8, 0xc8, 0x03, 0x90, 0x28, 0x00, 0x90, 0x29, 0x00,
   0x90, 0xca, 0x01, 0x90, 0x0c, 0x02, 0x90, 0x08, 0x02, 0x90, 0x08, 0x02,
   0xb8, 0xe8, 0x01};
