#define LineModeIcon_width 21
#define LineModeIcon_height 21
static unsigned char LineModeIcon_bits[] = {
   0x00, 0x00, 0x00, 0x1c, 0x00, 0x00, 0x22, 0x00, 0x00, 0x3a, 0x00, 0x00,
   0xe2, 0x01, 0x00, 0x1c, 0x0e, 0x07, 0x00, 0xf0, 0x08, 0x00, 0x80, 0x0b,
   0x00, 0x80, 0x08, 0x00, 0x00, 0x07, 0x00, 0x00, 0x00, 0x00, 0x00, 0x00,
   0xe1, 0x42, 0x0f, 0x41, 0x46, 0x01, 0x41, 0x4a, 0x01, 0x41, 0x4a, 0x01,
   0x41, 0x52, 0x07, 0x41, 0x52, 0x01, 0x41, 0x62, 0x01, 0xef, 0x42, 0x0f,
   0x00, 0x00, 0x00};
