#define PolygonModeIcon_width 21
#define PolygonModeIcon_height 21
static unsigned char PolygonModeIcon_bits[] = {
   0x00, 0x00, 0x00, 0x00, 0x04, 0x00, 0x00, 0x06, 0x00, 0x00, 0x07, 0x00,
   0x80, 0x07, 0x00, 0xc0, 0x07, 0x00, 0xe0, 0x0f, 0x00, 0xf0, 0x1f, 0x00,
   0xf8, 0x3f, 0x00, 0xf8, 0x7f, 0x00, 0xf8, 0xff, 0x00, 0xf8, 0xff, 0x01,
   0x00, 0x00, 0x00, 0x8f, 0x93, 0x08, 0x51, 0x94, 0x08, 0x51, 0x14, 0x05,
   0x4f, 0x14, 0x02, 0x41, 0x14, 0x02, 0x41, 0x14, 0x02, 0x41, 0x14, 0x02,
   0x81, 0xf3, 0x02};
