#define RectModeIcon_width 21
#define RectModeIcon_height 21
static unsigned char RectModeIcon_bits[] = {
   0x00, 0x00, 0x00, 0xfc, 0xff, 0x0f, 0xfc, 0xff, 0x0f, 0xfc, 0xff, 0x0f,
   0xfc, 0xff, 0x0f, 0xfc, 0xff, 0x0f, 0xfc, 0xff, 0x0f, 0xfc, 0xff, 0x0f,
   0xfc, 0xff, 0x0f, 0xfc, 0xff, 0x0f, 0x00, 0x00, 0x00, 0x00, 0x00, 0x00,
   0xce, 0x33, 0x1f, 0x52, 0x48, 0x04, 0x52, 0x08, 0x04, 0x4e, 0x08, 0x04,
   0xca, 0x09, 0x04, 0x52, 0x08, 0x04, 0x52, 0x48, 0x04, 0xd2, 0x33, 0x04,
   0x00, 0x00, 0x00};
