#define RemoveModeIcon_width 21
#define RemoveModeIcon_height 21
static unsigned char RemoveModeIcon_bits[] = {
   0x08, 0x00, 0x01, 0x10, 0x8f, 0x00, 0xa0, 0x5f, 0x00, 0x40, 0x26, 0x00,
   0x60, 0x66, 0x00, 0xe0, 0x7f, 0x00, 0xc0, 0x3f, 0x00, 0x80, 0x19, 0x00,
   0x80, 0x09, 0x00, 0x40, 0x19, 0x00, 0x30, 0x6f, 0x00, 0x0c, 0x86, 0x01,
   0x00, 0x00, 0x00, 0x7c, 0xbe, 0x00, 0x88, 0x82, 0x00, 0x88, 0x82, 0x00,
   0x88, 0x82, 0x00, 0x88, 0x9e, 0x00, 0x88, 0x82, 0x00, 0x88, 0x82, 0x00,
   0x7c, 0xbe, 0x0f};
