#define RotateModeIcon_width 21
#define RotateModeIcon_height 21
static unsigned char RotateModeIcon_bits[] = {
   0x00, 0x04, 0x00, 0x00, 0x06, 0x00, 0x00, 0x0f, 0x00, 0x00, 0x16, 0x00,
   0x00, 0x24, 0x00, 0x00, 0x20, 0x00, 0x00, 0x20, 0x00, 0x00, 0x20, 0x00,
   0x00, 0x20, 0x00, 0x00, 0x10, 0x00, 0x00, 0x08, 0x00, 0x00, 0x06, 0x00,
   0x00, 0x00, 0x00, 0x3c, 0xce, 0x07, 0x44, 0x11, 0x01, 0x44, 0x11, 0x01,
   0x3c, 0x11, 0x01, 0x1c, 0x11, 0x01, 0x34, 0x11, 0x01, 0x64, 0x11, 0x01,
   0x44, 0x0e, 0x01};
