#define SelModeIcon_width 21
#define SelModeIcon_height 21
static unsigned char SelModeIcon_bits[] = {
   0x0c, 0x00, 0x00, 0x3c, 0x00, 0x00, 0xf8, 0x01, 0x00, 0xf8, 0x07, 0x00,
   0xf8, 0x03, 0x00, 0xf0, 0x01, 0x00, 0xf0, 0x03, 0x00, 0x60, 0x07, 0x00,
   0x20, 0x0e, 0x00, 0x00, 0x1c, 0x00, 0x00, 0x18, 0x00, 0x00, 0x00, 0x00,
   0x00, 0x00, 0x00, 0x9c, 0x2f, 0x00, 0xa2, 0x20, 0x00, 0x84, 0x20, 0x00,
   0x88, 0x27, 0x00, 0x90, 0x20, 0x00, 0xa0, 0x20, 0x00, 0xa2, 0x20, 0x00,
   0x9c, 0xef, 0x03};
