#define TextModeIcon_width 21
#define TextModeIcon_height 21
static unsigned char TextModeIcon_bits[] = {
   0x00, 0x00, 0x00, 0x00, 0x00, 0x00, 0x00, 0x00, 0x00, 0x00, 0x00, 0x00,
   0x44, 0x44, 0x04, 0xaa, 0xaa, 0x0a, 0x44, 0x44, 0x04, 0x00, 0x00, 0x00,
   0x00, 0x00, 0x00, 0x00, 0x00, 0x00, 0x00, 0x00, 0x00, 0x00, 0x00, 0x00,
   0x00, 0x00, 0x00, 0xdf, 0x45, 0x1f, 0x44, 0x44, 0x04, 0x44, 0x28, 0x04,
   0x44, 0x10, 0x04, 0xc4, 0x28, 0x04, 0x44, 0x44, 0x04, 0x44, 0x44, 0x04,
   0xc4, 0x45, 0x04};
