#define ThermalModeIcon_width 21
#define ThermalModeIcon_height 21
static unsigned char ThermalModeIcon_bits[] = {
   0x00, 0x00, 0x00, 0x10, 0x40, 0x00, 0x20, 0x20, 0x00, 0x40, 0x17, 0x00,
   0x80, 0x08, 0x00, 0x40, 0x10, 0x00, 0x40, 0x10, 0x00, 0x40, 0x10, 0x00,
   0x80, 0x08, 0x00, 0x40, 0x17, 0x00, 0x20, 0x20, 0x00, 0x10, 0x40, 0x00,
   0x00, 0x00, 0x00, 0x5f, 0x3a, 0x11, 0x44, 0x4a, 0x1b, 0x44, 0x4a, 0x15,
   0x44, 0x3a, 0x15, 0xc4, 0x2b, 0x11, 0x44, 0x4a, 0x11, 0x44, 0x4a, 0x11,
   0x44, 0x4a, 0x11};
