#define ViaModeIcon_width 21
#define ViaModeIcon_height 21
static unsigned char ViaModeIcon_bits[] = {
   0x00, 0x00, 0x00, 0x00, 0x07, 0x00, 0x80, 0x0f, 0x00, 0xc0, 0x18, 0x00,
   0x60, 0x30, 0x00, 0x60, 0x30, 0x00, 0x60, 0x30, 0x00, 0xc0, 0x18, 0x00,
   0x80, 0x0f, 0x00, 0x00, 0x07, 0x00, 0x00, 0x00, 0x00, 0x00, 0x00, 0x00,
   0x00, 0x00, 0x00, 0x44, 0x47, 0x00, 0x44, 0xa2, 0x00, 0x44, 0x12, 0x01,
   0x28, 0x12, 0x01, 0x28, 0xf2, 0x01, 0x28, 0x12, 0x01, 0x10, 0x17, 0x01,
   0x00, 0x00, 0x00};
